<svg id="visual" viewBox="0 0 900 600" width="900" height="600" xmlns="http://www.w3.org/2000/svg" xmlns:xlink="http://www.w3.org/1999/xlink" version="1.1"><rect x="0" y="0" width="900" height="600" fill="#ebe9e2"></rect><path d="M0 471L15 473.7C30 476.3 60 481.7 90 482.3C120 483 150 479 180 473.3C210 467.7 240 460.3 270 459.3C300 458.3 330 463.7 360 469.5C390 475.3 420 481.7 450 483.5C480 485.3 510 482.7 540 480.2C570 477.7 600 475.3 630 471.8C660 468.3 690 463.7 720 463C750 462.3 780 465.7 810 471.5C840 477.3 870 485.7 885 489.8L900 494L900 601L885 601C870 601 840 601 810 601C780 601 750 601 720 601C690 601 660 601 630 601C600 601 570 601 540 601C510 601 480 601 450 601C420 601 390 601 360 601C330 601 300 601 270 601C240 601 210 601 180 601C150 601 120 601 90 601C60 601 30 601 15 601L0 601Z" fill="#04773b"></path><path d="M0 516L15 511.5C30 507 60 498 90 495.5C120 493 150 497 180 497.7C210 498.3 240 495.7 270 499.7C300 503.7 330 514.3 360 516.7C390 519 420 513 450 511C480 509 510 511 540 506.5C570 502 600 491 630 489C660 487 690 494 720 496.3C750 498.7 780 496.3 810 495.5C840 494.7 870 495.3 885 495.7L900 496L900 601L885 601C870 601 840 601 810 601C780 601 750 601 720 601C690 601 660 601 630 601C600 601 570 601 540 601C510 601 480 601 450 601C420 601 390 601 360 601C330 601 300 601 270 601C240 601 210 601 180 601C150 601 120 601 90 601C60 601 30 601 15 601L0 601Z" fill="#096435"></path><path d="M0 521L15 520C30 519 60 517 90 521.5C120 526 150 537 180 543C210 549 240 550 270 548C300 546 330 541 360 538.3C390 535.7 420 535.3 450 533.2C480 531 510 527 540 523.8C570 520.7 600 518.3 630 523C660 527.7 690 539.3 720 543.2C750 547 780 543 810 542.8C840 542.7 870 546.3 885 548.2L900 550L900 601L885 601C870 601 840 601 810 601C780 601 750 601 720 601C690 601 660 601 630 601C600 601 570 601 540 601C510 601 480 601 450 601C420 601 390 601 360 601C330 601 300 601 270 601C240 601 210 601 180 601C150 601 120 601 90 601C60 601 30 601 15 601L0 601Z" fill="#0e522f"></path><path d="M0 567L15 565.3C30 563.7 60 560.3 90 556.7C120 553 150 549 180 549.2C210 549.3 240 553.7 270 558C300 562.3 330 566.7 360 567.5C390 568.3 420 565.7 450 567.3C480 569 510 575 540 575.8C570 576.7 600 572.3 630 567.3C660 562.3 690 556.7 720 554.8C750 553 780 555 810 556.7C840 558.3 870 559.7 885 560.3L900 561L900 601L885 601C870 601 840 601 810 601C780 601 750 601 720 601C690 601 660 601 630 601C600 601 570 601 540 601C510 601 480 601 450 601C420 601 390 601 360 601C330 601 300 601 270 601C240 601 210 601 180 601C150 601 120 601 90 601C60 601 30 601 15 601L0 601Z" fill="#114128"></path></svg>