<svg id="visual" viewBox="0 0 900 600" width="900" height="600" xmlns="http://www.w3.org/2000/svg" xmlns:xlink="http://www.w3.org/1999/xlink" version="1.1"><rect x="0" y="0" width="900" height="600" fill="#ebe9e2"></rect><path d="M0 111L15 115.5C30 120 60 129 90 130.7C120 132.3 150 126.7 180 127.2C210 127.7 240 134.3 270 137.2C300 140 330 139 360 138.3C390 137.7 420 137.3 450 139.7C480 142 510 147 540 141.2C570 135.3 600 118.7 630 110.3C660 102 690 102 720 106.7C750 111.3 780 120.7 810 123.2C840 125.7 870 121.3 885 119.2L900 117L900 0L885 0C870 0 840 0 810 0C780 0 750 0 720 0C690 0 660 0 630 0C600 0 570 0 540 0C510 0 480 0 450 0C420 0 390 0 360 0C330 0 300 0 270 0C240 0 210 0 180 0C150 0 120 0 90 0C60 0 30 0 15 0L0 0Z" fill="#04773b"></path><path d="M0 93L15 96.8C30 100.7 60 108.3 90 109.8C120 111.3 150 106.7 180 104.5C210 102.3 240 102.7 270 102.8C300 103 330 103 360 99.2C390 95.3 420 87.7 450 87.2C480 86.7 510 93.3 540 97.3C570 101.3 600 102.7 630 100C660 97.3 690 90.7 720 90.7C750 90.7 780 97.3 810 97.3C840 97.3 870 90.7 885 87.3L900 84L900 0L885 0C870 0 840 0 810 0C780 0 750 0 720 0C690 0 660 0 630 0C600 0 570 0 540 0C510 0 480 0 450 0C420 0 390 0 360 0C330 0 300 0 270 0C240 0 210 0 180 0C150 0 120 0 90 0C60 0 30 0 15 0L0 0Z" fill="#096435"></path><path d="M0 48L15 49.3C30 50.7 60 53.3 90 54.5C120 55.7 150 55.3 180 54.2C210 53 240 51 270 52.2C300 53.3 330 57.7 360 58.8C390 60 420 58 450 59.5C480 61 510 66 540 67C570 68 600 65 630 67C660 69 690 76 720 74C750 72 780 61 810 57.5C840 54 870 58 885 60L900 62L900 0L885 0C870 0 840 0 810 0C780 0 750 0 720 0C690 0 660 0 630 0C600 0 570 0 540 0C510 0 480 0 450 0C420 0 390 0 360 0C330 0 300 0 270 0C240 0 210 0 180 0C150 0 120 0 90 0C60 0 30 0 15 0L0 0Z" fill="#0e522f"></path><path d="M0 29L15 32.8C30 36.7 60 44.3 90 46.7C120 49 150 46 180 46C210 46 240 49 270 45.5C300 42 330 32 360 31C390 30 420 38 450 40.2C480 42.3 510 38.7 540 39.3C570 40 600 45 630 43.3C660 41.7 690 33.3 720 33.3C750 33.3 780 41.7 810 44.7C840 47.7 870 45.3 885 44.2L900 43L900 0L885 0C870 0 840 0 810 0C780 0 750 0 720 0C690 0 660 0 630 0C600 0 570 0 540 0C510 0 480 0 450 0C420 0 390 0 360 0C330 0 300 0 270 0C240 0 210 0 180 0C150 0 120 0 90 0C60 0 30 0 15 0L0 0Z" fill="#114128"></path></svg>